<svg width="47" height="47" viewBox="0 0 47 47" fill="none" xmlns="http://www.w3.org/2000/svg">
<path d="M45.8273 24.2584L25.2023 1.34177C24.3338 0.374684 22.6655 0.374684 21.7969 1.34177L1.17193 24.2584C0.875058 24.5875 0.680194 24.9957 0.61103 25.4335C0.541867 25.8713 0.601384 26.3197 0.782345 26.7243C1.14901 27.5516 1.96943 28.0832 2.87464 28.0832H7.45797V44.1249C7.45797 44.7327 7.69941 45.3156 8.12918 45.7453C8.55896 46.1751 9.14185 46.4166 9.74964 46.4166H16.6246C17.2324 46.4166 17.8153 46.1751 18.2451 45.7453C18.6749 45.3156 18.9163 44.7327 18.9163 44.1249V34.9582H28.083V44.1249C28.083 44.7327 28.3244 45.3156 28.7542 45.7453C29.184 46.1751 29.7668 46.4166 30.3746 46.4166H37.2496C37.8574 46.4166 38.4403 46.1751 38.8701 45.7453C39.2999 45.3156 39.5413 44.7327 39.5413 44.1249V28.0832H44.1246C44.5685 28.0851 45.0032 27.9578 45.376 27.7169C45.7487 27.476 46.0433 27.1318 46.2238 26.7263C46.4043 26.3209 46.4629 25.8716 46.3925 25.4334C46.3221 24.9952 46.1257 24.587 45.8273 24.2584Z" fill="#0A1B3A"/>
</svg>
