<svg width="63" height="64" viewBox="0 0 63 64" fill="none" xmlns="http://www.w3.org/2000/svg">
<path d="M31.5 0.45459C14.1047 0.45459 0 14.5593 0 31.9546C0 49.3499 14.1047 63.4546 31.5 63.4546C48.8953 63.4546 63 49.3499 63 31.9546C63 14.5593 48.8953 0.45459 31.5 0.45459ZM31.5 58.1108C17.0578 58.1108 5.34375 46.3968 5.34375 31.9546C5.34375 17.5124 17.0578 5.79834 31.5 5.79834C45.9422 5.79834 57.6562 17.5124 57.6562 31.9546C57.6562 46.3968 45.9422 58.1108 31.5 58.1108Z" fill="#23A6F0"/>
<path d="M43.7836 40.8561L33.757 33.6069V16.2046C33.757 15.8952 33.5039 15.6421 33.1945 15.6421H29.8125C29.5031 15.6421 29.25 15.8952 29.25 16.2046V35.5686C29.25 35.7514 29.3344 35.9202 29.482 36.0257L41.1117 44.5053C41.3648 44.6882 41.7164 44.6319 41.8992 44.3858L43.9101 41.6436C44.093 41.3835 44.0367 41.0319 43.7836 40.8561Z" fill="#23A6F0"/>
</svg>
