<svg width="55" height="55" viewBox="0 0 55 55" fill="none" xmlns="http://www.w3.org/2000/svg">
<path d="M49.8278 28.2584L29.2028 5.34177C28.3343 4.37468 26.666 4.37468 25.7974 5.34177L5.17242 28.2584C4.87555 28.5875 4.68068 28.9957 4.61152 29.4335C4.54236 29.8713 4.60187 30.3197 4.78283 30.7243C5.1495 31.5516 5.96992 32.0832 6.87513 32.0832H11.4585V48.1249C11.4585 48.7327 11.6999 49.3156 12.1297 49.7453C12.5594 50.1751 13.1423 50.4166 13.7501 50.4166H20.6251C21.2329 50.4166 21.8158 50.1751 22.2456 49.7453C22.6753 49.3156 22.9168 48.7327 22.9168 48.1249V38.9582H32.0835V48.1249C32.0835 48.7327 32.3249 49.3156 32.7547 49.7453C33.1844 50.1751 33.7673 50.4166 34.3751 50.4166H41.2501C41.8579 50.4166 42.4408 50.1751 42.8706 49.7453C43.3004 49.3156 43.5418 48.7327 43.5418 48.1249V32.0832H48.1251C48.5689 32.0851 49.0037 31.9578 49.3765 31.7169C49.7492 31.476 50.0438 31.1318 50.2243 30.7263C50.4048 30.3209 50.4634 29.8716 50.393 29.4334C50.3226 28.9952 50.1262 28.587 49.8278 28.2584Z" fill="white"/>
</svg>
