<svg width="30" height="24" viewBox="0 0 30 24" fill="none" xmlns="http://www.w3.org/2000/svg">
<path d="M28.7143 9.24714H1.28571C0.102857 9.24714 0 10.2805 0 11.5589C0 12.8373 0.102857 13.8707 1.28571 13.8707H28.7143C29.8971 13.8707 30 12.8373 30 11.5589C30 10.2805 29.8971 9.24714 28.7143 9.24714ZM28.7143 18.4943H1.28571C0.102857 18.4943 0 19.5276 0 20.8061C0 22.0845 0.102857 23.1178 1.28571 23.1178H28.7143C29.8971 23.1178 30 22.0845 30 20.8061C30 19.5276 29.8971 18.4943 28.7143 18.4943ZM1.28571 4.62357H28.7143C29.8971 4.62357 30 3.5902 30 2.31178C30 1.03337 29.8971 0 28.7143 0H1.28571C0.102857 0 0 1.03337 0 2.31178C0 3.5902 0.102857 4.62357 1.28571 4.62357Z" fill="#F1F1F1"/>
</svg>
