<svg width="131" height="22" viewBox="0 0 131 22" fill="none" xmlns="http://www.w3.org/2000/svg">
<g clip-path="url(#clip0)">
<path d="M20.1308 8.41927C20.0732 8.24946 19.967 8.10025 19.8256 7.99006C19.6841 7.87987 19.5134 7.81353 19.3347 7.79922L14.1055 7.38371L11.8427 2.3747C11.7706 2.21337 11.6534 2.07634 11.5052 1.98016C11.357 1.88397 11.1841 1.83274 11.0074 1.83264C10.8307 1.83254 10.6577 1.88359 10.5094 1.97961C10.3611 2.07563 10.2437 2.21253 10.1715 2.37378L7.90867 7.38371L2.67951 7.79922C2.50382 7.81314 2.33586 7.87738 2.19572 7.98425C2.05559 8.09113 1.94921 8.23612 1.88931 8.40187C1.82941 8.56762 1.81854 8.74712 1.85799 8.91889C1.89744 9.09066 1.98553 9.24743 2.11175 9.37044L5.97605 13.1375L4.60937 19.0555C4.56788 19.2347 4.58118 19.4221 4.64755 19.5936C4.71392 19.7651 4.8303 19.9127 4.98159 20.0172C5.13288 20.1217 5.31208 20.1783 5.49596 20.1797C5.67983 20.1811 5.85988 20.1272 6.01274 20.025L11.0071 16.6955L16.0014 20.025C16.1577 20.1288 16.3419 20.1822 16.5294 20.1781C16.7169 20.1739 16.8986 20.1125 17.0502 20.002C17.2017 19.8916 17.3158 19.7373 17.3771 19.5601C17.4383 19.3828 17.4438 19.1911 17.3929 19.0106L15.7152 13.1403L19.8758 9.39612C20.1482 9.15031 20.2482 8.7669 20.1308 8.41927Z" fill="#F3CD03"/>
<path d="M47.1457 8.41927C47.0881 8.24946 46.9819 8.10025 46.8404 7.99006C46.699 7.87987 46.5283 7.81353 46.3495 7.79922L41.1204 7.38371L38.8576 2.3747C38.7855 2.21337 38.6683 2.07634 38.5201 1.98016C38.3719 1.88397 38.199 1.83274 38.0223 1.83264C37.8456 1.83254 37.6726 1.88359 37.5243 1.97961C37.376 2.07563 37.2586 2.21253 37.1864 2.37378L34.9236 7.38371L29.6944 7.79922C29.5187 7.81314 29.3508 7.87738 29.2106 7.98425C29.0705 8.09113 28.9641 8.23612 28.9042 8.40187C28.8443 8.56762 28.8334 8.74712 28.8729 8.91889C28.9123 9.09066 29.0004 9.24743 29.1266 9.37044L32.9909 13.1375L31.6243 19.0555C31.5828 19.2347 31.5961 19.4221 31.6624 19.5936C31.7288 19.7651 31.8452 19.9127 31.9965 20.0172C32.1478 20.1217 32.327 20.1783 32.5109 20.1797C32.6947 20.1811 32.8748 20.1272 33.0276 20.025L38.022 16.6955L43.0163 20.025C43.1726 20.1288 43.3568 20.1822 43.5443 20.1781C43.7318 20.1739 43.9135 20.1125 44.0651 20.002C44.2166 19.8916 44.3307 19.7373 44.392 19.5601C44.4532 19.3828 44.4587 19.1911 44.4078 19.0106L42.7301 13.1403L46.8907 9.39612C47.1631 9.15031 47.2631 8.7669 47.1457 8.41927Z" fill="#F3CD03"/>
<path d="M74.1567 8.41927C74.099 8.24946 73.9929 8.10025 73.8514 7.99006C73.7099 7.87987 73.5393 7.81353 73.3605 7.79922L68.1314 7.38371L65.8686 2.3747C65.7965 2.21337 65.6793 2.07634 65.5311 1.98016C65.3828 1.88397 65.21 1.83274 65.0333 1.83264C64.8566 1.83254 64.6836 1.88359 64.5353 1.97961C64.387 2.07563 64.2696 2.21253 64.1974 2.37378L61.9345 7.38371L56.7054 7.79922C56.5297 7.81314 56.3617 7.87738 56.2216 7.98425C56.0815 8.09113 55.9751 8.23612 55.9152 8.40187C55.8553 8.56762 55.8444 8.74712 55.8839 8.91889C55.9233 9.09066 56.0114 9.24743 56.1376 9.37044L60.0019 13.1375L58.6353 19.0555C58.5938 19.2347 58.6071 19.4221 58.6734 19.5936C58.7398 19.7651 58.8562 19.9127 59.0075 20.0172C59.1588 20.1217 59.338 20.1783 59.5218 20.1797C59.7057 20.1811 59.8858 20.1272 60.0386 20.025L65.033 16.6955L70.0273 20.025C70.1835 20.1288 70.3678 20.1822 70.5553 20.1781C70.7428 20.1739 70.9245 20.1125 71.0761 20.002C71.2276 19.8916 71.3417 19.7373 71.4029 19.5601C71.4642 19.3828 71.4697 19.1911 71.4187 19.0106L69.7411 13.1403L73.9017 9.39612C74.1741 9.15031 74.2741 8.7669 74.1567 8.41927Z" fill="#F3CD03"/>
<path d="M101.171 8.41927C101.113 8.24946 101.007 8.10025 100.865 7.99006C100.724 7.87987 100.553 7.81353 100.375 7.79922L95.1454 7.38371L92.8826 2.3747C92.8105 2.21337 92.6933 2.07634 92.5451 1.98016C92.3969 1.88397 92.224 1.83274 92.0473 1.83264C91.8706 1.83254 91.6977 1.88359 91.5493 1.97961C91.401 2.07563 91.2836 2.21253 91.2114 2.37378L88.9486 7.38371L83.7194 7.79922C83.5437 7.81314 83.3758 7.87738 83.2356 7.98425C83.0955 8.09113 82.9891 8.23612 82.9292 8.40187C82.8693 8.56762 82.8585 8.74712 82.8979 8.91889C82.9374 9.09066 83.0255 9.24743 83.1517 9.37044L87.016 13.1375L85.6493 19.0555C85.6078 19.2347 85.6211 19.4221 85.6875 19.5936C85.7538 19.7651 85.8702 19.9127 86.0215 20.0172C86.1728 20.1217 86.352 20.1783 86.5359 20.1797C86.7197 20.1811 86.8998 20.1272 87.0527 20.025L92.047 16.6955L97.0413 20.025C97.1976 20.1288 97.3818 20.1822 97.5693 20.1781C97.7568 20.1739 97.9386 20.1125 98.0901 20.002C98.2416 19.8916 98.3557 19.7373 98.417 19.5601C98.4782 19.3828 98.4838 19.1911 98.4328 19.0106L96.7552 13.1403L100.916 9.39612C101.188 9.15031 101.288 8.7669 101.171 8.41927Z" fill="#F3CD03"/>
<path d="M114.032 13.1376L112.665 19.0556C112.623 19.2348 112.635 19.4226 112.702 19.5945C112.768 19.7663 112.884 19.9143 113.035 20.019C113.187 20.1237 113.366 20.1803 113.551 20.1814C113.735 20.1825 113.915 20.128 114.068 20.0251L119.062 16.6956L124.056 20.0251C124.212 20.1289 124.397 20.1823 124.584 20.1781C124.772 20.174 124.953 20.1126 125.105 20.0021C125.257 19.8916 125.371 19.7374 125.432 19.5602C125.493 19.3829 125.499 19.1911 125.448 19.0107L123.77 13.1404L127.931 9.39622C128.064 9.27623 128.159 9.11982 128.204 8.94632C128.25 8.77283 128.243 8.58986 128.186 8.42004C128.128 8.25023 128.022 8.10101 127.88 7.99085C127.739 7.88069 127.568 7.81442 127.389 7.80023L122.16 7.3838L119.897 2.37479C119.825 2.2135 119.708 2.07654 119.56 1.98043C119.412 1.88433 119.239 1.83319 119.062 1.83319C118.885 1.83319 118.712 1.88433 118.564 1.98043C118.416 2.07654 118.298 2.2135 118.226 2.37479L115.963 7.3838L110.734 7.79931C110.559 7.81323 110.391 7.87747 110.251 7.98434C110.11 8.09122 110.004 8.23621 109.944 8.40196C109.884 8.56771 109.873 8.74721 109.913 8.91898C109.952 9.09075 110.04 9.24752 110.167 9.37053L114.032 13.1376ZM116.649 9.16966C116.812 9.15676 116.97 9.10005 117.104 9.00549C117.238 8.91092 117.344 8.78197 117.412 8.63216L119.062 4.98065L120.712 8.63216C120.779 8.78197 120.886 8.91092 121.02 9.00549C121.154 9.10005 121.311 9.15676 121.475 9.16966L125.118 9.45859L122.118 12.1589C121.858 12.3937 121.754 12.7551 121.849 13.0927L122.999 17.1147L119.572 14.8299C119.421 14.729 119.244 14.6751 119.063 14.6751C118.882 14.6751 118.705 14.729 118.555 14.8299L114.974 17.2175L115.937 13.0477C115.972 12.8944 115.967 12.7345 115.923 12.5835C115.879 12.4325 115.796 12.2954 115.684 12.1855L112.897 9.46868L116.649 9.16966Z" fill="#F3CD03"/>
</g>
<defs>
<clipPath id="clip0">
<rect width="130.068" height="22" fill="white"/>
</clipPath>
</defs>
</svg>
