<svg width="45" height="44" viewBox="0 0 45 44" fill="none" xmlns="http://www.w3.org/2000/svg">
<path fill-rule="evenodd" clip-rule="evenodd" d="M32.8103 26.4484C32.2488 26.1792 29.4963 24.8821 28.9838 24.7014C28.4714 24.5225 28.0983 24.434 27.7234 24.9724C27.3504 25.5071 26.2784 26.7176 25.9524 27.0753C25.6246 27.4348 25.2987 27.4781 24.7391 27.2108C24.1796 26.9398 22.3747 26.3743 20.2363 24.546C18.5727 23.1224 17.4479 21.3646 17.122 20.8263C16.7961 20.2897 17.0862 19.9988 17.3669 19.7315C17.6194 19.4912 17.9265 19.1046 18.2072 18.792C18.4879 18.4777 18.5802 18.2537 18.7668 17.8941C18.9552 17.5364 18.861 17.2239 18.7197 16.9547C18.5802 16.6855 17.4611 14.0425 16.9939 12.9676C16.5398 11.9215 16.0783 12.0643 15.7354 12.0462C15.4075 12.0317 15.0345 12.0281 14.6615 12.0281C14.2884 12.0281 13.6818 12.1618 13.1693 12.7002C12.655 13.2367 11.2099 14.5357 11.2099 17.1787C11.2099 19.82 13.2145 22.3727 13.4953 22.7322C13.776 23.0899 17.4423 28.5133 23.0586 30.8384C24.3962 31.3912 25.4381 31.7218 26.2501 31.9675C27.5915 32.3776 28.8124 32.3198 29.777 32.1807C30.8509 32.0272 33.0891 30.8818 33.5563 29.628C34.0217 28.3742 34.0217 27.2993 33.8823 27.0753C33.7429 26.8513 33.3698 26.7176 32.8084 26.4484H32.8103ZM22.5951 39.8226H22.5876C19.2518 39.8232 15.9772 38.9633 13.1071 37.3331L12.4289 36.9465L5.37889 38.7206L7.26102 32.1301L6.81828 31.4545C4.95336 28.6079 3.96642 25.3134 3.97152 21.9518C3.97529 12.1058 12.329 4.09535 22.6026 4.09535C27.5764 4.09535 32.2526 5.95614 35.7682 9.33087C37.5022 10.9868 38.8766 12.9559 39.8118 15.1244C40.747 17.293 41.2246 19.6178 41.2168 21.9644C41.213 31.8104 32.8592 39.8226 22.5951 39.8226ZM38.4435 6.76731C36.3677 4.76365 33.8978 3.17495 31.177 2.09328C28.4562 1.0116 25.5386 0.458456 22.5932 0.465894C10.2453 0.465894 0.19217 10.1041 0.188402 21.95C0.186518 25.7366 1.21708 29.4329 3.17835 32.6902L0 43.8242L11.8769 40.8361C15.1624 42.5526 18.8442 43.452 22.5857 43.4521H22.5951C34.943 43.4521 44.9961 33.8139 44.9999 21.9662C45.009 19.143 44.4342 16.3461 43.3088 13.7372C42.1835 11.1284 40.5298 8.75939 38.4435 6.76731Z" fill="white"/>
</svg>
